<mxfile host="app.diagrams.net" modified="2024-07-16T06:55:21.025Z" agent="Mozilla/5.0 (Windows NT 10.0; Win64; x64) AppleWebKit/537.36 (KHTML, like Gecko) Chrome/126.0.0.0 Safari/537.36" etag="SC0T6SyzEgFBzMrUvAtU" version="24.6.5" type="github">
  <diagram name="Page-1" id="4lJU4KrNGaUvkO3WKab2">
    <mxGraphModel dx="1032" dy="501" grid="1" gridSize="10" guides="1" tooltips="1" connect="1" arrows="1" fold="1" page="1" pageScale="1" pageWidth="827" pageHeight="1169" math="0" shadow="0">
      <root>
        <mxCell id="0" />
        <mxCell id="1" parent="0" />
        <mxCell id="zY_RlyjhJZT-gaGXoMXJ-8" style="edgeStyle=orthogonalEdgeStyle;rounded=0;orthogonalLoop=1;jettySize=auto;html=1;exitX=1;exitY=0.5;exitDx=0;exitDy=0;" edge="1" parent="1" source="zY_RlyjhJZT-gaGXoMXJ-1" target="zY_RlyjhJZT-gaGXoMXJ-2">
          <mxGeometry relative="1" as="geometry" />
        </mxCell>
        <mxCell id="zY_RlyjhJZT-gaGXoMXJ-29" style="edgeStyle=orthogonalEdgeStyle;rounded=0;orthogonalLoop=1;jettySize=auto;html=1;exitX=0.5;exitY=1;exitDx=0;exitDy=0;entryX=0.5;entryY=0;entryDx=0;entryDy=0;" edge="1" parent="1" source="zY_RlyjhJZT-gaGXoMXJ-1" target="zY_RlyjhJZT-gaGXoMXJ-4">
          <mxGeometry relative="1" as="geometry" />
        </mxCell>
        <mxCell id="zY_RlyjhJZT-gaGXoMXJ-1" value="&lt;font style=&quot;font-size: 18px;&quot;&gt;&lt;b style=&quot;&quot;&gt;Assessment and planning&lt;/b&gt;&lt;/font&gt;" style="rounded=0;whiteSpace=wrap;html=1;" vertex="1" parent="1">
          <mxGeometry x="50" y="80" width="200" height="50" as="geometry" />
        </mxCell>
        <mxCell id="zY_RlyjhJZT-gaGXoMXJ-10" style="edgeStyle=orthogonalEdgeStyle;rounded=0;orthogonalLoop=1;jettySize=auto;html=1;exitX=1;exitY=0.5;exitDx=0;exitDy=0;" edge="1" parent="1" source="zY_RlyjhJZT-gaGXoMXJ-2" target="zY_RlyjhJZT-gaGXoMXJ-3">
          <mxGeometry relative="1" as="geometry" />
        </mxCell>
        <mxCell id="zY_RlyjhJZT-gaGXoMXJ-23" style="edgeStyle=orthogonalEdgeStyle;rounded=0;orthogonalLoop=1;jettySize=auto;html=1;exitX=0.5;exitY=1;exitDx=0;exitDy=0;" edge="1" parent="1" source="zY_RlyjhJZT-gaGXoMXJ-2" target="zY_RlyjhJZT-gaGXoMXJ-12">
          <mxGeometry relative="1" as="geometry" />
        </mxCell>
        <mxCell id="zY_RlyjhJZT-gaGXoMXJ-2" value="&lt;font style=&quot;font-size: 18px;&quot;&gt;&lt;b style=&quot;&quot;&gt;Strategic planning&lt;/b&gt;&lt;/font&gt;" style="rounded=0;whiteSpace=wrap;html=1;" vertex="1" parent="1">
          <mxGeometry x="300" y="80" width="200" height="50" as="geometry" />
        </mxCell>
        <mxCell id="zY_RlyjhJZT-gaGXoMXJ-24" style="edgeStyle=orthogonalEdgeStyle;rounded=0;orthogonalLoop=1;jettySize=auto;html=1;exitX=0.5;exitY=1;exitDx=0;exitDy=0;" edge="1" parent="1" source="zY_RlyjhJZT-gaGXoMXJ-3" target="zY_RlyjhJZT-gaGXoMXJ-22">
          <mxGeometry relative="1" as="geometry" />
        </mxCell>
        <mxCell id="zY_RlyjhJZT-gaGXoMXJ-3" value="&lt;font style=&quot;font-size: 18px;&quot;&gt;&lt;b style=&quot;&quot;&gt;Implementation and monitoring&lt;/b&gt;&lt;/font&gt;" style="rounded=0;whiteSpace=wrap;html=1;" vertex="1" parent="1">
          <mxGeometry x="540" y="80" width="200" height="50" as="geometry" />
        </mxCell>
        <mxCell id="zY_RlyjhJZT-gaGXoMXJ-7" style="edgeStyle=orthogonalEdgeStyle;rounded=0;orthogonalLoop=1;jettySize=auto;html=1;exitX=0.5;exitY=1;exitDx=0;exitDy=0;" edge="1" parent="1" source="zY_RlyjhJZT-gaGXoMXJ-4" target="zY_RlyjhJZT-gaGXoMXJ-5">
          <mxGeometry relative="1" as="geometry" />
        </mxCell>
        <mxCell id="zY_RlyjhJZT-gaGXoMXJ-4" value="&lt;font style=&quot;font-size: 16px;&quot;&gt;Comprehensive Assessment&lt;/font&gt;" style="rounded=0;whiteSpace=wrap;html=1;" vertex="1" parent="1">
          <mxGeometry x="60" y="180" width="180" height="50" as="geometry" />
        </mxCell>
        <mxCell id="zY_RlyjhJZT-gaGXoMXJ-5" value="&lt;ul&gt;&lt;li&gt;&lt;font style=&quot;font-size: 16px;&quot;&gt;Resource mapping&amp;nbsp;&lt;/font&gt;&lt;/li&gt;&lt;li&gt;&lt;font size=&quot;3&quot; style=&quot;&quot;&gt;Stakeholder identification&lt;/font&gt;&lt;/li&gt;&lt;li&gt;&lt;font size=&quot;3&quot; style=&quot;&quot;&gt;Baseline data collection&lt;/font&gt;&lt;/li&gt;&lt;/ul&gt;" style="rounded=0;whiteSpace=wrap;html=1;align=left;" vertex="1" parent="1">
          <mxGeometry x="55" y="270" width="190" height="140" as="geometry" />
        </mxCell>
        <mxCell id="zY_RlyjhJZT-gaGXoMXJ-12" value="&lt;font style=&quot;font-size: 16px;&quot;&gt;&lt;b&gt;Sustainable Practices&lt;/b&gt;&lt;/font&gt;&lt;div&gt;&lt;ul&gt;&lt;li&gt;&lt;span style=&quot;font-size: 16px;&quot;&gt;Agroecology&amp;nbsp;&lt;/span&gt;&lt;/li&gt;&lt;li&gt;&lt;span style=&quot;font-size: 16px;&quot;&gt;Water management&lt;/span&gt;&lt;/li&gt;&lt;li&gt;&lt;span style=&quot;font-size: 16px;&quot;&gt;Soil conservation&lt;/span&gt;&lt;/li&gt;&lt;li&gt;&lt;span style=&quot;font-size: 16px;&quot;&gt;Habitat restoration&lt;/span&gt;&lt;/li&gt;&lt;/ul&gt;&lt;/div&gt;" style="rounded=0;whiteSpace=wrap;html=1;align=left;" vertex="1" parent="1">
          <mxGeometry x="300" y="180" width="200" height="140" as="geometry" />
        </mxCell>
        <mxCell id="zY_RlyjhJZT-gaGXoMXJ-18" value="&lt;span style=&quot;font-size: 16px;&quot;&gt;&lt;b&gt;Community Engagement&lt;/b&gt;&lt;/span&gt;&lt;br&gt;&lt;div&gt;&lt;ul&gt;&lt;li&gt;&lt;span style=&quot;font-size: 16px;&quot;&gt;Participatory planning&amp;nbsp;&lt;/span&gt;&lt;/li&gt;&lt;li&gt;&lt;span style=&quot;font-size: 16px;&quot;&gt;Education and awareness&lt;/span&gt;&lt;/li&gt;&lt;li&gt;&lt;span style=&quot;font-size: 16px;&quot;&gt;Capacity building&amp;nbsp;&lt;/span&gt;&lt;/li&gt;&lt;li&gt;&lt;span style=&quot;font-size: 16px;&quot;&gt;Local governance&lt;/span&gt;&lt;/li&gt;&lt;/ul&gt;&lt;/div&gt;" style="rounded=0;whiteSpace=wrap;html=1;align=left;" vertex="1" parent="1">
          <mxGeometry x="300" y="360" width="210" height="160" as="geometry" />
        </mxCell>
        <mxCell id="zY_RlyjhJZT-gaGXoMXJ-19" value="&lt;span style=&quot;font-size: 16px;&quot;&gt;&lt;b&gt;Adequate resources&lt;/b&gt;&lt;/span&gt;&lt;br&gt;&lt;div&gt;&lt;ul&gt;&lt;li&gt;&lt;span style=&quot;font-size: 16px;&quot;&gt;Funding&amp;nbsp;&lt;/span&gt;&lt;/li&gt;&lt;li&gt;&lt;span style=&quot;font-size: 16px;&quot;&gt;Technical assistance&lt;/span&gt;&lt;/li&gt;&lt;li&gt;&lt;span style=&quot;font-size: 16px;&quot;&gt;Infrastructure development&amp;nbsp;&amp;nbsp;&lt;/span&gt;&lt;/li&gt;&lt;li&gt;&lt;span style=&quot;font-size: 16px;&quot;&gt;Research and innovation&lt;/span&gt;&lt;/li&gt;&lt;/ul&gt;&lt;/div&gt;" style="rounded=0;whiteSpace=wrap;html=1;align=left;" vertex="1" parent="1">
          <mxGeometry x="300" y="540" width="210" height="160" as="geometry" />
        </mxCell>
        <mxCell id="zY_RlyjhJZT-gaGXoMXJ-20" value="&lt;span style=&quot;font-size: 16px;&quot;&gt;&lt;b&gt;Balancing Social, Economic, and Environmental challenges&lt;/b&gt;&lt;/span&gt;&lt;br&gt;&lt;div&gt;&lt;ul&gt;&lt;li&gt;&lt;span style=&quot;font-size: 16px;&quot;&gt;Economic viability&amp;nbsp;&lt;/span&gt;&lt;/li&gt;&lt;li&gt;&lt;span style=&quot;font-size: 16px;&quot;&gt;Social equity&lt;/span&gt;&lt;/li&gt;&lt;li&gt;&lt;span style=&quot;font-size: 16px;&quot;&gt;Environmental protection&amp;nbsp;&lt;/span&gt;&lt;/li&gt;&lt;/ul&gt;&lt;/div&gt;" style="rounded=0;whiteSpace=wrap;html=1;align=left;" vertex="1" parent="1">
          <mxGeometry x="300" y="730" width="210" height="170" as="geometry" />
        </mxCell>
        <mxCell id="zY_RlyjhJZT-gaGXoMXJ-21" value="&lt;span style=&quot;font-size: 16px;&quot;&gt;&lt;b&gt;Monitoring and Evaluation&lt;/b&gt;&lt;/span&gt;&lt;br&gt;&lt;div&gt;&lt;ul&gt;&lt;li&gt;&lt;span style=&quot;font-size: 16px;&quot;&gt;Performance Indicator&amp;nbsp;&lt;/span&gt;&lt;/li&gt;&lt;li&gt;&lt;span style=&quot;font-size: 16px;&quot;&gt;Regular monitoring&amp;nbsp;&lt;/span&gt;&lt;/li&gt;&lt;li&gt;&lt;span style=&quot;font-size: 16px;&quot;&gt;Adaptive management&amp;nbsp;&lt;/span&gt;&lt;/li&gt;&lt;/ul&gt;&lt;/div&gt;" style="rounded=0;whiteSpace=wrap;html=1;align=left;" vertex="1" parent="1">
          <mxGeometry x="540" y="730" width="210" height="150" as="geometry" />
        </mxCell>
        <mxCell id="zY_RlyjhJZT-gaGXoMXJ-22" value="&lt;span style=&quot;font-size: 16px;&quot;&gt;&lt;b&gt;Implementation Phases&lt;/b&gt;&lt;/span&gt;&lt;br&gt;&lt;div&gt;&lt;ul&gt;&lt;li&gt;&lt;span style=&quot;font-size: 16px;&quot;&gt;Form Steering committee&amp;nbsp;&lt;/span&gt;&lt;/li&gt;&lt;li&gt;&lt;span style=&quot;font-size: 16px;&quot;&gt;Develop a detail plan&lt;/span&gt;&lt;/li&gt;&lt;li&gt;&lt;span style=&quot;font-size: 16px;&quot;&gt;Pilot project&lt;/span&gt;&lt;/li&gt;&lt;li&gt;&lt;span style=&quot;font-size: 16px;&quot;&gt;Periodic improvement&amp;nbsp;&lt;/span&gt;&lt;/li&gt;&lt;/ul&gt;&lt;/div&gt;" style="rounded=0;whiteSpace=wrap;html=1;align=left;" vertex="1" parent="1">
          <mxGeometry x="540" y="170" width="200" height="180" as="geometry" />
        </mxCell>
        <mxCell id="zY_RlyjhJZT-gaGXoMXJ-25" value="" style="shape=partialRectangle;whiteSpace=wrap;html=1;bottom=1;right=1;left=1;top=0;fillColor=none;routingCenterX=-0.5;rotation=90;" vertex="1" parent="1">
          <mxGeometry x="-25" y="515" width="620" height="30" as="geometry" />
        </mxCell>
        <mxCell id="zY_RlyjhJZT-gaGXoMXJ-26" value="" style="line;strokeWidth=1;html=1;" vertex="1" parent="1">
          <mxGeometry x="270" y="450" width="30" height="10" as="geometry" />
        </mxCell>
        <mxCell id="zY_RlyjhJZT-gaGXoMXJ-27" value="" style="line;strokeWidth=1;html=1;" vertex="1" parent="1">
          <mxGeometry x="270" y="620" width="30" height="10" as="geometry" />
        </mxCell>
        <mxCell id="zY_RlyjhJZT-gaGXoMXJ-32" value="" style="endArrow=classic;startArrow=classic;html=1;rounded=0;entryX=1;entryY=0.5;entryDx=0;entryDy=0;dashed=1;exitX=1.002;exitY=0.44;exitDx=0;exitDy=0;exitPerimeter=0;" edge="1" parent="1" source="zY_RlyjhJZT-gaGXoMXJ-21" target="zY_RlyjhJZT-gaGXoMXJ-3">
          <mxGeometry width="50" height="50" relative="1" as="geometry">
            <mxPoint x="760" y="794" as="sourcePoint" />
            <mxPoint x="740.0000000000001" y="210.22000000000003" as="targetPoint" />
            <Array as="points">
              <mxPoint x="780" y="796" />
              <mxPoint x="780" y="720" />
              <mxPoint x="779.6" y="210" />
              <mxPoint x="780" y="105" />
            </Array>
          </mxGeometry>
        </mxCell>
        <mxCell id="zY_RlyjhJZT-gaGXoMXJ-33" value="" style="endArrow=classic;startArrow=classic;html=1;rounded=0;exitX=0.066;exitY=0.003;exitDx=0;exitDy=0;exitPerimeter=0;dashed=1;" edge="1" parent="1" source="zY_RlyjhJZT-gaGXoMXJ-21">
          <mxGeometry width="50" height="50" relative="1" as="geometry">
            <mxPoint x="570" y="570" as="sourcePoint" />
            <mxPoint x="500" y="130" as="targetPoint" />
          </mxGeometry>
        </mxCell>
        <mxCell id="zY_RlyjhJZT-gaGXoMXJ-36" value="" style="endArrow=classic;html=1;rounded=0;dashed=1;" edge="1" parent="1">
          <mxGeometry width="50" height="50" relative="1" as="geometry">
            <mxPoint x="20" y="110" as="sourcePoint" />
            <mxPoint x="50" y="110" as="targetPoint" />
          </mxGeometry>
        </mxCell>
        <mxCell id="zY_RlyjhJZT-gaGXoMXJ-37" value="" style="endArrow=none;html=1;rounded=0;dashed=1;" edge="1" parent="1">
          <mxGeometry width="50" height="50" relative="1" as="geometry">
            <mxPoint x="30" y="920" as="sourcePoint" />
            <mxPoint x="20" y="110" as="targetPoint" />
          </mxGeometry>
        </mxCell>
        <mxCell id="zY_RlyjhJZT-gaGXoMXJ-40" value="" style="endArrow=classic;html=1;rounded=0;" edge="1" parent="1">
          <mxGeometry width="50" height="50" relative="1" as="geometry">
            <mxPoint x="40" y="740" as="sourcePoint" />
            <mxPoint x="80" y="740" as="targetPoint" />
          </mxGeometry>
        </mxCell>
        <mxCell id="zY_RlyjhJZT-gaGXoMXJ-41" value="&lt;font style=&quot;font-size: 14px;&quot;&gt;One way relationship&lt;/font&gt;" style="rounded=0;whiteSpace=wrap;html=1;fillColor=none;strokeColor=none;" vertex="1" parent="1">
          <mxGeometry x="90" y="710" width="160" height="60" as="geometry" />
        </mxCell>
        <mxCell id="zY_RlyjhJZT-gaGXoMXJ-42" value="&lt;font style=&quot;font-size: 14px;&quot;&gt;Two way relationship&lt;/font&gt;" style="rounded=0;whiteSpace=wrap;html=1;fillColor=none;strokeColor=none;" vertex="1" parent="1">
          <mxGeometry x="90" y="750" width="160" height="60" as="geometry" />
        </mxCell>
        <mxCell id="zY_RlyjhJZT-gaGXoMXJ-43" value="" style="endArrow=classic;startArrow=classic;html=1;rounded=0;dashed=1;" edge="1" parent="1">
          <mxGeometry width="50" height="50" relative="1" as="geometry">
            <mxPoint x="30" y="779.5" as="sourcePoint" />
            <mxPoint x="80" y="779.5" as="targetPoint" />
          </mxGeometry>
        </mxCell>
        <mxCell id="zY_RlyjhJZT-gaGXoMXJ-46" value="" style="line;strokeWidth=1;html=1;dashed=1;" vertex="1" parent="1">
          <mxGeometry x="30" y="910" width="610" height="10" as="geometry" />
        </mxCell>
        <mxCell id="zY_RlyjhJZT-gaGXoMXJ-47" value="" style="endArrow=classic;html=1;rounded=0;exitX=1;exitY=0.5;exitDx=0;exitDy=0;exitPerimeter=0;dashed=1;" edge="1" parent="1" source="zY_RlyjhJZT-gaGXoMXJ-46">
          <mxGeometry width="50" height="50" relative="1" as="geometry">
            <mxPoint x="639" y="910" as="sourcePoint" />
            <mxPoint x="639" y="880" as="targetPoint" />
          </mxGeometry>
        </mxCell>
      </root>
    </mxGraphModel>
  </diagram>
</mxfile>
